<?xml version="1.0" encoding="UTF-8"?>
<svg xmlns="http://www.w3.org/2000/svg" xmlns:xlink="http://www.w3.org/1999/xlink" width="512px" height="512px" viewBox="42 37 460 460" version="1.1">
<g id="surface1">
<path style=" stroke:none;fill-rule:nonzero;fill:rgb(23,26,35);fill-opacity:1;" d="M 169.40625 384 C 163.070312 356.84375 134.484375 334.632812 122.753906 320 C 66.890625 250.207031 74.351562 149.136719 139.851562 88.304688 C 205.351562 27.46875 306.699219 27.484375 372.179688 88.339844 C 437.660156 149.195312 445.085938 250.269531 389.207031 320.042969 C 377.472656 334.65625 348.929688 356.863281 342.59375 384 L 169.386719 384 Z M 341.332031 426.667969 L 341.332031 448 C 341.332031 471.5625 322.230469 490.667969 298.667969 490.667969 L 213.332031 490.667969 C 189.769531 490.667969 170.667969 471.5625 170.667969 448 L 170.667969 426.667969 Z M 277.332031 213.441406 L 277.332031 128 L 181.332031 256.105469 L 234.667969 256.105469 L 234.667969 341.441406 L 330.667969 213.441406 Z M 277.332031 213.441406 "/>
</g>
</svg>
